# xmcd
#
# Track frame offsets: 
#        150
#        13818
#        27305
#        41311
#        56627
#        70921
#        85771
#        98892
#        113427
#        127124
#        140793
#        151623
#        167946
#        179031
#        192127
#        203644
#        218545
#        233434
#        246653
#        260931
#
# Disc length: 3656 seconds
#
# Revision: 9
# Processed by: cddbd v1.5.2PL0 Copyright (c) Steve Scherf et al.
# Submitted via: ExactAudioCopy v0.95b3
#
DISCID=1c0e4614
DTITLE=Glenn Miller - In The Mood [CD8] [222917-321]
DYEAR=2005
DGENRE=Jazz
TTITLE0=This Time The Dream's On Me
TTITLE1=Dreamsville, Ohio
TTITLE2=Papa Niccolini  (The Happy Coppler)
TTITLE3=Jingle Bells
TTITLE4=This Is No Laughing Matter
TTITLE5=Humpty Dumpty Heart
TTITLE6=Ev'rything I Love
TTITLE7=A String Of Pearls
TTITLE8=Baby Mine
TTITLE9=Long Tall Mama
TTITLE10=Day Dreaming
TTITLE11=Moonlight Sonata
TTITLE12=Slumber's Song
TTITLE13=The White Cliffs Of Dover (There'll Be Blue Skies Over)
TTITLE14=We're The Couple In The Castle
TTITLE15=It Happened In Hawaii
TTITLE16=Moonlight Cocktail
TTITLE17=Happy In Love
TTITLE18=Fooled
TTITLE19=Keep 'Em Flying
EXTD=YEAR: 2005
EXTT0=
EXTT1=
EXTT2=
EXTT3=
EXTT4=
EXTT5=
EXTT6=
EXTT7=
EXTT8=
EXTT9=
EXTT10=
EXTT11=
EXTT12=
EXTT13=
EXTT14=
EXTT15=
EXTT16=
EXTT17=
EXTT18=
EXTT19=
PLAYORDER=
